{"asset":{"version":"2.0","generator":"babylon.js glTF exporter for 3dsmax 2021 v20220401.2"},"scene":0,"scenes":[{"nodes":[0,1]}],"nodes":[{"mesh":0,"translation":[-0.0125,-0.00250000018,-0.0125],"name":"Box002"},{"mesh":1,"translation":[0.0125,-0.00250000018,0.0125],"name":"Box003"}],"meshes":[{"primitives":[{"attributes":{"POSITION":1,"NORMAL":2,"TEXCOORD_0":3},"indices":0,"material":0}],"name":"Box002"},{"primitives":[{"attributes":{"POSITION":5,"NORMAL":6,"TEXCOORD_0":7},"indices":4,"material":1}],"name":"Box003"}],"accessors":[{"bufferView":0,"componentType":5123,"count":36,"type":"SCALAR","name":"accessorIndices"},{"bufferView":1,"componentType":5126,"count":24,"max":[0.0100000007,0.0200000014,0.0100000007],"min":[-0.0100000007,0.0,-0.0100000007],"type":"VEC3","name":"accessorPositions"},{"bufferView":1,"byteOffset":288,"componentType":5126,"count":24,"type":"VEC3","name":"accessorNormals"},{"bufferView":2,"componentType":5126,"count":24,"type":"VEC2","name":"accessorUVs"},{"bufferView":0,"byteOffset":72,"componentType":5123,"count":4356,"type":"SCALAR","name":"accessorIndices"},{"bufferView":1,"byteOffset":576,"componentType":5126,"count":860,"max":[0.0100000007,0.0200000014,0.0100000007],"min":[-0.0100000007,0.0,-0.0100000007],"type":"VEC3","name":"accessorPositions"},{"bufferView":1,"byteOffset":10896,"componentType":5126,"count":860,"type":"VEC3","name":"accessorNormals"},{"bufferView":2,"byteOffset":192,"componentType":5126,"count":860,"type":"VEC2","name":"accessorUVs"}],"bufferViews":[{"buffer":0,"byteLength":8784,"name":"bufferViewScalar"},{"buffer":0,"byteOffset":8784,"byteLength":21216,"byteStride":12,"name":"bufferViewFloatVec3"},{"buffer":0,"byteOffset":30000,"byteLength":7072,"byteStride":8,"name":"bufferViewFloatVec2"}],"buffers":[{"uri":"biaisdecontour.bin","byteLength":37072}],"materials":[{"pbrMetallicRoughness":{"baseColorFactor":[0.4007843,0.5682353,0.362352967,1.0],"metallicFactor":0.0},"doubleSided":true,"name":"rond","extras":{"babylonSeparateCullingPass":false}},{"pbrMetallicRoughness":{"baseColorFactor":[0.16546762,0.8489209,0.0863309056,1.0],"metallicFactor":0.0,"roughnessFactor":0.7},"doubleSided":true,"name":"carre","extras":{"babylonSeparateCullingPass":false}}]}