{"asset":{"version":"2.0","generator":"babylon.js glTF exporter for 3dsmax 2021 v20220401.2"},"scene":0,"scenes":[{"nodes":[0,1,2,3]}],"nodes":[{"mesh":0,"translation":[0.0,0.0154919857,0.0],"name":"Box002"},{"mesh":1,"translation":[-0.0200000014,-0.0145080155,0.0],"name":"Box003"},{"mesh":2,"translation":[0.0200000014,-0.0145080155,0.0],"name":"Box004"},{"mesh":3,"translation":[0.0,0.00549198547,0.0],"name":"Box008"}],"meshes":[{"primitives":[{"attributes":{"POSITION":1,"NORMAL":2,"TEXCOORD_0":3},"indices":0,"material":0}],"name":"Box002"},{"primitives":[{"attributes":{"POSITION":5,"NORMAL":6,"TEXCOORD_0":7},"indices":4,"material":1}],"name":"Box003"},{"primitives":[{"attributes":{"POSITION":9,"NORMAL":10,"TEXCOORD_0":11},"indices":8,"material":1}],"name":"Box004"},{"primitives":[{"attributes":{"POSITION":13,"NORMAL":14,"TEXCOORD_0":15},"indices":12,"material":1}],"name":"Box008"}],"accessors":[{"bufferView":0,"componentType":5123,"count":1764,"type":"SCALAR","name":"accessorIndices"},{"bufferView":1,"componentType":5126,"count":380,"max":[0.0150000006,0.0150000006,0.0100000007],"min":[-0.0150000006,0.0,-0.0100000007],"type":"VEC3","name":"accessorPositions"},{"bufferView":1,"byteOffset":4560,"componentType":5126,"count":380,"type":"VEC3","name":"accessorNormals"},{"bufferView":2,"componentType":5126,"count":380,"type":"VEC2","name":"accessorUVs"},{"bufferView":0,"byteOffset":3528,"componentType":5123,"count":1764,"type":"SCALAR","name":"accessorIndices"},{"bufferView":1,"byteOffset":9120,"componentType":5126,"count":380,"max":[0.0150000006,0.0150000006,0.0100000007],"min":[-0.0150000006,0.0,-0.0100000007],"type":"VEC3","name":"accessorPositions"},{"bufferView":1,"byteOffset":13680,"componentType":5126,"count":380,"type":"VEC3","name":"accessorNormals"},{"bufferView":2,"byteOffset":3040,"componentType":5126,"count":380,"type":"VEC2","name":"accessorUVs"},{"bufferView":0,"byteOffset":7056,"componentType":5123,"count":1764,"type":"SCALAR","name":"accessorIndices"},{"bufferView":1,"byteOffset":18240,"componentType":5126,"count":380,"max":[0.0150000006,0.0150000006,0.0100000007],"min":[-0.0150000006,0.0,-0.0100000007],"type":"VEC3","name":"accessorPositions"},{"bufferView":1,"byteOffset":22800,"componentType":5126,"count":380,"type":"VEC3","name":"accessorNormals"},{"bufferView":2,"byteOffset":6080,"componentType":5126,"count":380,"type":"VEC2","name":"accessorUVs"},{"bufferView":0,"byteOffset":10584,"componentType":5123,"count":3156,"type":"SCALAR","name":"accessorIndices"},{"bufferView":1,"byteOffset":27360,"componentType":5126,"count":677,"max":[0.0215,0.0100000007,0.00150016346],"min":[-0.0215,-0.00500000035,-0.0015],"type":"VEC3","name":"accessorPositions"},{"bufferView":1,"byteOffset":35484,"componentType":5126,"count":677,"type":"VEC3","name":"accessorNormals"},{"bufferView":2,"byteOffset":9120,"componentType":5126,"count":677,"type":"VEC2","name":"accessorUVs"}],"bufferViews":[{"buffer":0,"byteLength":16896,"name":"bufferViewScalar"},{"buffer":0,"byteOffset":16896,"byteLength":43608,"byteStride":12,"name":"bufferViewFloatVec3"},{"buffer":0,"byteOffset":60504,"byteLength":14536,"byteStride":8,"name":"bufferViewFloatVec2"}],"buffers":[{"uri":"hierarchie.bin","byteLength":75040}],"materials":[{"pbrMetallicRoughness":{"baseColorFactor":[0.16546762,0.8489209,0.0863309056,1.0],"metallicFactor":0.0,"roughnessFactor":0.7},"doubleSided":true,"name":"carre","extras":{"babylonSeparateCullingPass":false}},{"pbrMetallicRoughness":{"baseColorFactor":[0.4007843,0.5682353,0.362352967,1.0],"metallicFactor":0.0},"doubleSided":true,"name":"rond","extras":{"babylonSeparateCullingPass":false}}]}