{"asset":{"version":"2.0","generator":"babylon.js glTF exporter for 3dsmax 2021 v20220401.2"},"scene":0,"scenes":[{"nodes":[0,1,2,3]}],"nodes":[{"mesh":0,"translation":[0.0,0.0100000007,0.0100000007],"name":"Sphere001"},{"mesh":1,"translation":[1.81762508E-10,0.0100000007,-0.0100000007],"name":"Sphere002"},{"mesh":2,"translation":[0.0,-0.0100000007,0.01],"name":"Sphere003"},{"mesh":3,"translation":[1.81762508E-10,-0.0100000007,-0.0100000016],"name":"Sphere004"}],"meshes":[{"primitives":[{"attributes":{"POSITION":1,"NORMAL":2,"TEXCOORD_0":3},"indices":0,"material":0}],"name":"Sphere001"},{"primitives":[{"attributes":{"POSITION":5,"NORMAL":6,"TEXCOORD_0":7},"indices":4,"material":0}],"name":"Sphere002"},{"primitives":[{"attributes":{"POSITION":9,"NORMAL":10,"TEXCOORD_0":11},"indices":8,"material":1}],"name":"Sphere003"},{"primitives":[{"attributes":{"POSITION":13,"NORMAL":14,"TEXCOORD_0":15},"indices":12,"material":0}],"name":"Sphere004"}],"accessors":[{"bufferView":0,"componentType":5123,"count":4176,"type":"SCALAR","name":"accessorIndices"},{"bufferView":1,"componentType":5126,"count":787,"max":[0.007807095,0.007786342,0.0078070946],"min":[-0.007807095,-0.007786342,-0.0078070946],"type":"VEC3","name":"accessorPositions"},{"bufferView":1,"byteOffset":9444,"componentType":5126,"count":787,"type":"VEC3","name":"accessorNormals"},{"bufferView":2,"componentType":5126,"count":787,"type":"VEC2","name":"accessorUVs"},{"bufferView":0,"byteOffset":8352,"componentType":5123,"count":2232,"type":"SCALAR","name":"accessorIndices"},{"bufferView":1,"byteOffset":18888,"componentType":5126,"count":438,"max":[0.00600000238,0.00773734041,0.006803204],"min":[-0.006,-0.00773734041,-0.006803204],"type":"VEC3","name":"accessorPositions"},{"bufferView":1,"byteOffset":24144,"componentType":5126,"count":438,"type":"VEC3","name":"accessorNormals"},{"bufferView":2,"byteOffset":6296,"componentType":5126,"count":438,"type":"VEC2","name":"accessorUVs"},{"bufferView":0,"byteOffset":12816,"componentType":5123,"count":2880,"type":"SCALAR","name":"accessorIndices"},{"bufferView":1,"byteOffset":29400,"componentType":5126,"count":559,"max":[0.008,0.008,0.008],"min":[-0.008,-0.008,-0.008],"type":"VEC3","name":"accessorPositions"},{"bufferView":1,"byteOffset":36108,"componentType":5126,"count":559,"type":"VEC3","name":"accessorNormals"},{"bufferView":2,"byteOffset":9800,"componentType":5126,"count":559,"type":"VEC2","name":"accessorUVs"},{"bufferView":0,"byteOffset":18576,"componentType":5123,"count":6432,"type":"SCALAR","name":"accessorIndices"},{"bufferView":1,"byteOffset":42816,"componentType":5126,"count":1187,"max":[0.007952405,0.007922375,0.007952405],"min":[-0.007952405,-0.007922376,-0.007952405],"type":"VEC3","name":"accessorPositions"},{"bufferView":1,"byteOffset":57060,"componentType":5126,"count":1187,"type":"VEC3","name":"accessorNormals"},{"bufferView":2,"byteOffset":14272,"componentType":5126,"count":1187,"type":"VEC2","name":"accessorUVs"}],"bufferViews":[{"buffer":0,"byteLength":31440,"name":"bufferViewScalar"},{"buffer":0,"byteOffset":31440,"byteLength":71304,"byteStride":12,"name":"bufferViewFloatVec3"},{"buffer":0,"byteOffset":102744,"byteLength":23768,"byteStride":8,"name":"bufferViewFloatVec2"}],"buffers":[{"uri":"iteration.bin","byteLength":126512}],"materials":[{"pbrMetallicRoughness":{"baseColorFactor":[0.4007843,0.5682353,0.362352967,1.0],"metallicFactor":0.0},"doubleSided":true,"name":"rond","extras":{"babylonSeparateCullingPass":false}},{"pbrMetallicRoughness":{"baseColorFactor":[0.16546762,0.8489209,0.0863309056,1.0],"metallicFactor":0.0,"roughnessFactor":0.7},"doubleSided":true,"name":"carre","extras":{"babylonSeparateCullingPass":false}}]}