{"asset":{"version":"2.0","generator":"babylon.js glTF exporter for 3dsmax 2021 v20220401.2"},"scene":0,"scenes":[{"nodes":[0]}],"nodes":[{"mesh":0,"name":"Box001"}],"meshes":[{"primitives":[{"attributes":{"POSITION":1,"NORMAL":2,"TEXCOORD_0":3},"indices":0}],"name":"Box001"}],"accessors":[{"bufferView":0,"componentType":5123,"count":2268,"type":"SCALAR","name":"accessorIndices"},{"bufferView":1,"componentType":5126,"count":548,"max":[0.025,0.0150000006,0.025],"min":[-0.025,0.0,-0.025],"type":"VEC3","name":"accessorPositions"},{"bufferView":1,"byteOffset":6576,"componentType":5126,"count":548,"type":"VEC3","name":"accessorNormals"},{"bufferView":2,"componentType":5126,"count":548,"type":"VEC2","name":"accessorUVs"}],"bufferViews":[{"buffer":0,"byteLength":4536,"name":"bufferViewScalar"},{"buffer":0,"byteOffset":4536,"byteLength":13152,"byteStride":12,"name":"bufferViewFloatVec3"},{"buffer":0,"byteOffset":17688,"byteLength":4384,"byteStride":8,"name":"bufferViewFloatVec2"}],"buffers":[{"uri":"New Text Document.bin","byteLength":22072}]}