{"asset":{"version":"2.0","generator":"babylon.js glTF exporter for 3dsmax 2021 v20220401.2"},"scene":0,"scenes":[{"nodes":[0]}],"nodes":[{"mesh":0,"name":"principe1"}],"meshes":[{"primitives":[{"attributes":{"POSITION":1,"NORMAL":2,"TEXCOORD_0":3},"indices":0,"material":0},{"attributes":{"POSITION":5,"NORMAL":6,"TEXCOORD_0":7},"indices":4,"material":1},{"attributes":{"POSITION":9,"NORMAL":10,"TEXCOORD_0":11},"indices":8,"material":2}],"name":"principe1"}],"accessors":[{"bufferView":0,"componentType":5123,"count":1956,"type":"SCALAR","name":"accessorIndices"},{"bufferView":1,"componentType":5126,"count":448,"max":[0.025,0.0150000006,0.025],"min":[-0.025,0.0,-0.025],"type":"VEC3","name":"accessorPositions"},{"bufferView":1,"byteOffset":5376,"componentType":5126,"count":448,"type":"VEC3","name":"accessorNormals"},{"bufferView":2,"componentType":5126,"count":448,"type":"VEC2","name":"accessorUVs"},{"bufferView":0,"byteOffset":3912,"componentType":5123,"count":192,"type":"SCALAR","name":"accessorIndices"},{"bufferView":1,"byteOffset":10752,"componentType":5126,"count":72,"max":[0.025,0.0150000006,0.025],"min":[-0.0175,0.014,-0.0169978924],"type":"VEC3","name":"accessorPositions"},{"bufferView":1,"byteOffset":11616,"componentType":5126,"count":72,"type":"VEC3","name":"accessorNormals"},{"bufferView":2,"byteOffset":3584,"componentType":5126,"count":72,"type":"VEC2","name":"accessorUVs"},{"bufferView":0,"byteOffset":4296,"componentType":5123,"count":192,"type":"SCALAR","name":"accessorIndices"},{"bufferView":1,"byteOffset":12480,"componentType":5126,"count":70,"max":[0.025,0.0150000006,0.025],"min":[-0.00391061464,0.013831513,-0.00323611684],"type":"VEC3","name":"accessorPositions"},{"bufferView":1,"byteOffset":13320,"componentType":5126,"count":70,"type":"VEC3","name":"accessorNormals"},{"bufferView":2,"byteOffset":4160,"componentType":5126,"count":70,"type":"VEC2","name":"accessorUVs"}],"bufferViews":[{"buffer":0,"byteLength":4680,"name":"bufferViewScalar"},{"buffer":0,"byteOffset":4680,"byteLength":14160,"byteStride":12,"name":"bufferViewFloatVec3"},{"buffer":0,"byteOffset":18840,"byteLength":4720,"byteStride":8,"name":"bufferViewFloatVec2"}],"buffers":[{"uri":"principe1.bin","byteLength":23560}],"materials":[{"pbrMetallicRoughness":{"baseColorFactor":[0.4007843,0.5682353,0.362352967,1.0],"metallicFactor":0.0},"doubleSided":true,"name":"sol","extras":{"babylonSeparateCullingPass":false}},{"pbrMetallicRoughness":{"baseColorFactor":[0.5,0.5,0.5,1.0],"metallicFactor":0.0},"doubleSided":true,"name":"route","extras":{"babylonSeparateCullingPass":false}},{"pbrMetallicRoughness":{"baseColorFactor":[0.16546762,0.8489209,0.0863309056,1.0],"metallicFactor":0.0,"roughnessFactor":0.7},"doubleSided":true,"name":"desireLine","extras":{"babylonSeparateCullingPass":false}}]}