{"asset":{"version":"2.0","generator":"babylon.js glTF exporter for 3dsmax 2021 v20220401.2"},"scene":0,"scenes":[{"nodes":[0]}],"nodes":[{"mesh":0,"translation":[0.0,0.0159228351,6.9600925E-10],"rotation":[0.7071068,0.0,0.0,0.7071067],"scale":[0.06686096,0.06686096,0.06686096],"name":"texte"}],"meshes":[{"primitives":[{"attributes":{"POSITION":1,"NORMAL":2},"indices":0,"material":0},{"attributes":{"POSITION":4,"NORMAL":5},"indices":3,"material":1}],"name":"texte"}],"accessors":[{"bufferView":0,"componentType":5123,"count":54339,"type":"SCALAR","name":"accessorIndices"},{"bufferView":1,"componentType":5126,"count":30355,"max":[0.422700226,0.0100595625,0.177843884],"min":[-0.422700226,-0.0100595625,-0.177843884],"type":"VEC3","name":"accessorPositions"},{"bufferView":1,"byteOffset":364260,"componentType":5126,"count":30355,"type":"VEC3","name":"accessorNormals"},{"bufferView":0,"byteOffset":108680,"componentType":5123,"count":4875,"type":"SCALAR","name":"accessorIndices"},{"bufferView":1,"byteOffset":728520,"componentType":5126,"count":2715,"max":[-0.104393557,0.0100595625,-0.0168191232],"min":[-0.2995935,-0.0100595625,-0.08053163],"type":"VEC3","name":"accessorPositions"},{"bufferView":1,"byteOffset":761100,"componentType":5126,"count":2715,"type":"VEC3","name":"accessorNormals"}],"bufferViews":[{"buffer":0,"byteLength":118432,"name":"bufferViewScalar"},{"buffer":0,"byteOffset":118432,"byteLength":793680,"byteStride":12,"name":"bufferViewFloatVec3"}],"buffers":[{"uri":"surlignage.bin","byteLength":912112}],"materials":[{"pbrMetallicRoughness":{"baseColorFactor":[0.4007843,0.5682353,0.362352967,1.0],"metallicFactor":0.0},"doubleSided":true,"name":"rond","extras":{"babylonSeparateCullingPass":false}},{"pbrMetallicRoughness":{"baseColorFactor":[0.16546762,0.8489209,0.0863309056,1.0],"metallicFactor":0.0,"roughnessFactor":0.7},"doubleSided":true,"name":"carre","extras":{"babylonSeparateCullingPass":false}}]}