{"asset":{"version":"2.0","generator":"babylon.js glTF exporter for 3dsmax 2021 v20220401.2"},"scene":0,"scenes":[{"nodes":[0]}],"nodes":[{"mesh":0,"translation":[0.00176797854,0.024383463,0.00172640046],"rotation":[0.49999997,-0.50000006,0.5000001,0.49999997],"scale":[1.03154528,2.019308,0.9999999],"name":"Box009"}],"meshes":[{"primitives":[{"attributes":{"POSITION":1,"NORMAL":2,"TEXCOORD_0":3},"indices":0,"material":0},{"attributes":{"POSITION":5,"NORMAL":6,"TEXCOORD_0":7},"indices":4,"material":1}],"name":"Box009"}],"accessors":[{"bufferView":0,"componentType":5123,"count":12348,"type":"SCALAR","name":"accessorIndices"},{"bufferView":1,"componentType":5126,"count":2660,"max":[0.02911215,0.00346897938,0.0134366844],"min":[-0.02660804,-1.61680724E-09,-0.0132920071],"type":"VEC3","name":"accessorPositions"},{"bufferView":1,"byteOffset":31920,"componentType":5126,"count":2660,"type":"VEC3","name":"accessorNormals"},{"bufferView":2,"componentType":5126,"count":2660,"type":"VEC2","name":"accessorUVs"},{"bufferView":0,"byteOffset":24696,"componentType":5123,"count":1764,"type":"SCALAR","name":"accessorIndices"},{"bufferView":1,"byteOffset":63840,"componentType":5126,"count":380,"max":[0.029034825,0.00346897659,0.00396454474],"min":[0.00919098,-8.34465053E-10,-0.00396454474],"type":"VEC3","name":"accessorPositions"},{"bufferView":1,"byteOffset":68400,"componentType":5126,"count":380,"type":"VEC3","name":"accessorNormals"},{"bufferView":2,"byteOffset":21280,"componentType":5126,"count":380,"type":"VEC2","name":"accessorUVs"}],"bufferViews":[{"buffer":0,"byteLength":28224,"name":"bufferViewScalar"},{"buffer":0,"byteOffset":28224,"byteLength":72960,"byteStride":12,"name":"bufferViewFloatVec3"},{"buffer":0,"byteOffset":101184,"byteLength":24320,"byteStride":8,"name":"bufferViewFloatVec2"}],"buffers":[{"uri":"surlignage.bin","byteLength":125504}],"materials":[{"pbrMetallicRoughness":{"baseColorFactor":[0.4007843,0.5682353,0.362352967,1.0],"metallicFactor":0.0},"doubleSided":true,"name":"rond","extras":{"babylonSeparateCullingPass":false}},{"pbrMetallicRoughness":{"baseColorFactor":[0.16546762,0.8489209,0.0863309056,1.0],"metallicFactor":0.0,"roughnessFactor":0.7},"doubleSided":true,"name":"carre","extras":{"babylonSeparateCullingPass":false}}]}