{"asset":{"version":"2.0","generator":"babylon.js glTF exporter for 3dsmax 2021 v20220401.2"},"scene":0,"scenes":[{"nodes":[0,1,2]}],"nodes":[{"mesh":0,"translation":[0.003449748,0.0005534344,0.00145738584],"rotation":[0.0,-0.130524665,0.0,0.991445065],"scale":[1.92820489,1.92820477,1.92820489],"name":"Box003"},{"mesh":1,"translation":[-0.000461912,0.03253717,0.00488093542],"rotation":[0.430460185,-0.56098485,0.5609849,0.430460155],"scale":[1.92820477,1.92820477,1.92820477],"name":"Box004"},{"mesh":2,"translation":[0.00165791041,0.02113985,-0.00303044752],"rotation":[-0.56098485,0.430460155,0.430460185,0.5609849],"scale":[1.92820477,1.92820477,1.92820477],"name":"Box005"}],"meshes":[{"primitives":[{"attributes":{"POSITION":1,"NORMAL":2,"TEXCOORD_0":3},"indices":0,"material":0}],"name":"Box003"},{"primitives":[{"attributes":{"POSITION":5,"NORMAL":6,"TEXCOORD_0":7},"indices":4,"material":1}],"name":"Box004"},{"primitives":[{"attributes":{"POSITION":9,"NORMAL":10,"TEXCOORD_0":11},"indices":8,"material":0}],"name":"Box005"}],"accessors":[{"bufferView":0,"componentType":5123,"count":1044,"type":"SCALAR","name":"accessorIndices"},{"bufferView":1,"componentType":5126,"count":250,"max":[0.0015,0.0200000014,0.0015],"min":[-0.0015,0.00551233068,-0.0015],"type":"VEC3","name":"accessorPositions"},{"bufferView":1,"byteOffset":3000,"componentType":5126,"count":250,"type":"VEC3","name":"accessorNormals"},{"bufferView":2,"componentType":5126,"count":250,"type":"VEC2","name":"accessorUVs"},{"bufferView":0,"byteOffset":2088,"componentType":5123,"count":1356,"type":"SCALAR","name":"accessorIndices"},{"bufferView":1,"byteOffset":6000,"componentType":5126,"count":306,"max":[0.0075000003,0.00200000033,0.00250000018],"min":[-0.0075000003,-4.884357E-10,-0.00250000018],"type":"VEC3","name":"accessorPositions"},{"bufferView":1,"byteOffset":9672,"componentType":5126,"count":306,"type":"VEC3","name":"accessorNormals"},{"bufferView":2,"byteOffset":2000,"componentType":5126,"count":306,"type":"VEC2","name":"accessorUVs"},{"bufferView":0,"byteOffset":4800,"componentType":5123,"count":1356,"type":"SCALAR","name":"accessorIndices"},{"bufferView":1,"byteOffset":13344,"componentType":5126,"count":306,"max":[0.0075000003,0.00200000033,0.00250000018],"min":[-0.0075000003,-4.884357E-10,-0.00250000018],"type":"VEC3","name":"accessorPositions"},{"bufferView":1,"byteOffset":17016,"componentType":5126,"count":306,"type":"VEC3","name":"accessorNormals"},{"bufferView":2,"byteOffset":4448,"componentType":5126,"count":306,"type":"VEC2","name":"accessorUVs"}],"bufferViews":[{"buffer":0,"byteLength":7512,"name":"bufferViewScalar"},{"buffer":0,"byteOffset":7512,"byteLength":20688,"byteStride":12,"name":"bufferViewFloatVec3"},{"buffer":0,"byteOffset":28200,"byteLength":6896,"byteStride":8,"name":"bufferViewFloatVec2"}],"buffers":[{"uri":"trouversonchemin.bin","byteLength":35096}],"materials":[{"pbrMetallicRoughness":{"baseColorFactor":[0.4007843,0.5682353,0.362352967,1.0],"metallicFactor":0.0},"doubleSided":true,"name":"rond","extras":{"babylonSeparateCullingPass":false}},{"pbrMetallicRoughness":{"baseColorFactor":[0.16546762,0.8489209,0.0863309056,1.0],"metallicFactor":0.0,"roughnessFactor":0.7},"doubleSided":true,"name":"carre","extras":{"babylonSeparateCullingPass":false}}]}