{"asset":{"version":"2.0","generator":"babylon.js glTF exporter for 3dsmax 2021 v20220401.2"},"scene":0,"scenes":[{"nodes":[0,1,2,3,4,5,6,7,8]}],"nodes":[{"mesh":0,"name":"Box002"},{"mesh":1,"translation":[0.001936841,0.0150000006,0.00112645375],"rotation":[0.0,-0.130524665,0.0,0.991445065],"name":"Box003"},{"mesh":2,"translation":[-9.181285E-05,0.0315873139,0.002901965],"rotation":[0.4304602,-0.5609849,0.5609849,0.430460185],"scale":[0.99999994,0.99999994,1.0],"name":"Box004"},{"mesh":3,"translation":[0.00100756332,0.0256764684,-0.00120101345],"rotation":[-0.5609849,0.430460185,0.4304602,0.5609849],"scale":[0.99999994,0.99999994,1.0],"name":"Box005"},{"mesh":4,"translation":[-0.00567757059,0.0140818721,-0.01879757],"name":"Box006"},{"mesh":5,"translation":[-0.008247563,0.0140818721,-0.009751181],"rotation":[0.0,0.10165827,0.0,0.994819462],"name":"Box007"},{"mesh":6,"translation":[-0.00598930568,0.0140818721,-0.000440778764],"rotation":[0.0,-0.112701841,0.0,0.99362886],"name":"Box008"},{"mesh":7,"translation":[-0.009477732,0.0140818721,0.00782777],"rotation":[0.0,-0.0588353761,0.0,0.9982677],"name":"Box009"},{"mesh":8,"translation":[-0.008338841,0.0140818721,0.0170634948],"rotation":[0.0,-0.225079551,0.0,0.974340439],"name":"Box010"}],"meshes":[{"primitives":[{"attributes":{"POSITION":1,"NORMAL":2,"TEXCOORD_0":3},"indices":0,"material":0}],"name":"Box002"},{"primitives":[{"attributes":{"POSITION":5,"NORMAL":6,"TEXCOORD_0":7},"indices":4,"material":0}],"name":"Box003"},{"primitives":[{"attributes":{"POSITION":9,"NORMAL":10,"TEXCOORD_0":11},"indices":8,"material":1}],"name":"Box004"},{"primitives":[{"attributes":{"POSITION":13,"NORMAL":14,"TEXCOORD_0":15},"indices":12,"material":0}],"name":"Box005"},{"primitives":[{"attributes":{"POSITION":17,"NORMAL":18,"TEXCOORD_0":19},"indices":16,"material":2}],"name":"Box006"},{"primitives":[{"attributes":{"POSITION":21,"NORMAL":22,"TEXCOORD_0":23},"indices":20,"material":2}],"name":"Box007"},{"primitives":[{"attributes":{"POSITION":25,"NORMAL":26,"TEXCOORD_0":27},"indices":24,"material":2}],"name":"Box008"},{"primitives":[{"attributes":{"POSITION":29,"NORMAL":30,"TEXCOORD_0":31},"indices":28,"material":2}],"name":"Box009"},{"primitives":[{"attributes":{"POSITION":33,"NORMAL":34,"TEXCOORD_0":35},"indices":32,"material":2}],"name":"Box010"}],"accessors":[{"bufferView":0,"componentType":5123,"count":4356,"type":"SCALAR","name":"accessorIndices"},{"bufferView":1,"componentType":5126,"count":860,"max":[0.025,0.0150000006,0.025],"min":[-0.025,0.0,-0.025],"type":"VEC3","name":"accessorPositions"},{"bufferView":1,"byteOffset":10320,"componentType":5126,"count":860,"type":"VEC3","name":"accessorNormals"},{"bufferView":2,"componentType":5126,"count":860,"type":"VEC2","name":"accessorUVs"},{"bufferView":0,"byteOffset":8712,"componentType":5123,"count":1044,"type":"SCALAR","name":"accessorIndices"},{"bufferView":1,"byteOffset":20640,"componentType":5126,"count":250,"max":[0.0015,0.0200000014,0.0015],"min":[-0.0015,0.0,-0.0015],"type":"VEC3","name":"accessorPositions"},{"bufferView":1,"byteOffset":23640,"componentType":5126,"count":250,"type":"VEC3","name":"accessorNormals"},{"bufferView":2,"byteOffset":6880,"componentType":5126,"count":250,"type":"VEC2","name":"accessorUVs"},{"bufferView":0,"byteOffset":10800,"componentType":5123,"count":1356,"type":"SCALAR","name":"accessorIndices"},{"bufferView":1,"byteOffset":26640,"componentType":5126,"count":306,"max":[0.0075000003,0.00200000033,0.00250000018],"min":[-0.0075000003,-4.884357E-10,-0.00250000018],"type":"VEC3","name":"accessorPositions"},{"bufferView":1,"byteOffset":30312,"componentType":5126,"count":306,"type":"VEC3","name":"accessorNormals"},{"bufferView":2,"byteOffset":8880,"componentType":5126,"count":306,"type":"VEC2","name":"accessorUVs"},{"bufferView":0,"byteOffset":13512,"componentType":5123,"count":1356,"type":"SCALAR","name":"accessorIndices"},{"bufferView":1,"byteOffset":33984,"componentType":5126,"count":306,"max":[0.0075000003,0.00200000033,0.00250000018],"min":[-0.0075000003,-4.884357E-10,-0.00250000018],"type":"VEC3","name":"accessorPositions"},{"bufferView":1,"byteOffset":37656,"componentType":5126,"count":306,"type":"VEC3","name":"accessorNormals"},{"bufferView":2,"byteOffset":11328,"componentType":5126,"count":306,"type":"VEC2","name":"accessorUVs"},{"bufferView":0,"byteOffset":16224,"componentType":5123,"count":1044,"type":"SCALAR","name":"accessorIndices"},{"bufferView":1,"byteOffset":41328,"componentType":5126,"count":250,"max":[0.00272320956,0.00155289448,0.003732617],"min":[-0.00272320956,0.0,-0.003732617],"type":"VEC3","name":"accessorPositions"},{"bufferView":1,"byteOffset":44328,"componentType":5126,"count":250,"type":"VEC3","name":"accessorNormals"},{"bufferView":2,"byteOffset":13776,"componentType":5126,"count":250,"type":"VEC2","name":"accessorUVs"},{"bufferView":0,"byteOffset":18312,"componentType":5123,"count":1044,"type":"SCALAR","name":"accessorIndices"},{"bufferView":1,"byteOffset":47328,"componentType":5126,"count":250,"max":[0.00272320956,0.00155289448,0.003732617],"min":[-0.00272320956,0.0,-0.003732617],"type":"VEC3","name":"accessorPositions"},{"bufferView":1,"byteOffset":50328,"componentType":5126,"count":250,"type":"VEC3","name":"accessorNormals"},{"bufferView":2,"byteOffset":15776,"componentType":5126,"count":250,"type":"VEC2","name":"accessorUVs"},{"bufferView":0,"byteOffset":20400,"componentType":5123,"count":1044,"type":"SCALAR","name":"accessorIndices"},{"bufferView":1,"byteOffset":53328,"componentType":5126,"count":250,"max":[0.00272320956,0.00155289448,0.003732617],"min":[-0.00272320956,0.0,-0.003732617],"type":"VEC3","name":"accessorPositions"},{"bufferView":1,"byteOffset":56328,"componentType":5126,"count":250,"type":"VEC3","name":"accessorNormals"},{"bufferView":2,"byteOffset":17776,"componentType":5126,"count":250,"type":"VEC2","name":"accessorUVs"},{"bufferView":0,"byteOffset":22488,"componentType":5123,"count":1044,"type":"SCALAR","name":"accessorIndices"},{"bufferView":1,"byteOffset":59328,"componentType":5126,"count":250,"max":[0.00272320956,0.00155289448,0.003732617],"min":[-0.00272320956,0.0,-0.003732617],"type":"VEC3","name":"accessorPositions"},{"bufferView":1,"byteOffset":62328,"componentType":5126,"count":250,"type":"VEC3","name":"accessorNormals"},{"bufferView":2,"byteOffset":19776,"componentType":5126,"count":250,"type":"VEC2","name":"accessorUVs"},{"bufferView":0,"byteOffset":24576,"componentType":5123,"count":1044,"type":"SCALAR","name":"accessorIndices"},{"bufferView":1,"byteOffset":65328,"componentType":5126,"count":250,"max":[0.00272320956,0.00155289448,0.003732617],"min":[-0.00272320956,0.0,-0.003732617],"type":"VEC3","name":"accessorPositions"},{"bufferView":1,"byteOffset":68328,"componentType":5126,"count":250,"type":"VEC3","name":"accessorNormals"},{"bufferView":2,"byteOffset":21776,"componentType":5126,"count":250,"type":"VEC2","name":"accessorUVs"}],"bufferViews":[{"buffer":0,"byteLength":26664,"name":"bufferViewScalar"},{"buffer":0,"byteOffset":26664,"byteLength":71328,"byteStride":12,"name":"bufferViewFloatVec3"},{"buffer":0,"byteOffset":97992,"byteLength":23776,"byteStride":8,"name":"bufferViewFloatVec2"}],"buffers":[{"uri":"trouversonchemin.bin","byteLength":121768}],"materials":[{"pbrMetallicRoughness":{"baseColorFactor":[0.4007843,0.5682353,0.362352967,1.0],"metallicFactor":0.0},"doubleSided":true,"name":"rond","extras":{"babylonSeparateCullingPass":false}},{"pbrMetallicRoughness":{"baseColorFactor":[0.16546762,0.8489209,0.0863309056,1.0],"metallicFactor":0.0,"roughnessFactor":0.7},"doubleSided":true,"name":"carre","extras":{"babylonSeparateCullingPass":false}},{"pbrMetallicRoughness":{"baseColorFactor":[0.664313734,0.6478431,0.365098059,1.0],"metallicFactor":0.0},"doubleSided":true,"name":"pierres","extras":{"babylonSeparateCullingPass":false}}]}